<?xml version="1.0" standalone="no"?>
<!DOCTYPE svg PUBLIC "-//W3C//DTD SVG 20010904//EN"
 "http://www.w3.org/TR/2001/REC-SVG-20010904/DTD/svg10.dtd">
<svg version="1.0" xmlns="http://www.w3.org/2000/svg"
 width="512.000000pt" height="512.000000pt" viewBox="0 0 512.000000 512.000000"
 preserveAspectRatio="xMidYMid meet">
<metadata>
Created by potrace 1.16, written by Peter Selinger 2001-2019
</metadata>
<g transform="translate(0.000000,512.000000) scale(0.100000,-0.100000)"
fill="#000000" stroke="none">
<path d="M2360 4654 c-14 -2 -65 -9 -115 -15 -202 -25 -423 -93 -630 -194
-511 -248 -905 -695 -1084 -1231 -142 -426 -145 -889 -7 -1329 18 -60 37 -145
40 -187 10 -120 43 -302 71 -393 96 -314 283 -520 545 -599 66 -20 244 -46
321 -46 45 0 75 -9 150 -44 259 -121 518 -182 819 -193 356 -12 685 58 1005
215 217 107 377 220 554 391 46 45 91 81 101 81 20 0 19 -7 52 272 l23 197 47
26 c161 88 392 262 441 333 61 87 53 131 -31 174 -28 14 -48 28 -43 30 16 6
41 246 41 398 0 1088 -814 1991 -1902 2109 -90 10 -341 13 -398 5z m586 -778
c159 -23 298 -55 430 -97 154 -49 296 -108 288 -120 -3 -5 2 -6 10 -3 13 5 76
-21 76 -32 0 -2 -9 0 -19 6 -27 14 -36 13 -22 -3 6 -8 7 -18 3 -22 -4 -5 -1
-4 7 0 11 6 13 4 7 -10 -6 -16 -4 -16 11 -4 14 11 15 12 9 0 -5 -8 -3 -17 5
-23 11 -8 11 -9 -3 -5 -22 7 -30 -3 -17 -20 6 -7 9 -13 5 -13 -4 0 1 -11 10
-25 9 -14 21 -22 28 -18 8 5 8 3 0 -8 -6 -8 -10 -25 -8 -39 3 -18 1 -21 -5
-11 -5 8 -8 22 -6 31 2 9 -3 17 -11 17 -10 0 -11 -4 -5 -10 7 -7 7 -15 -2 -26
-9 -12 -9 -13 1 -7 8 5 12 0 12 -14 0 -13 4 -19 12 -14 7 5 8 3 2 -7 -5 -8 -9
-18 -9 -23 0 -5 -7 -11 -15 -13 -13 -4 -13 -3 0 6 13 10 13 11 0 11 -13 0 -13
1 0 11 13 9 13 10 0 6 -13 -3 -15 -12 -11 -48 0 -5 6 -7 13 -3 7 4 2 -6 -10
-23 -12 -17 -18 -34 -14 -38 4 -5 1 -5 -5 -1 -10 5 -9 12 3 31 10 16 12 25 4
30 -6 3 -10 3 -9 -2 4 -21 -2 -34 -13 -27 -6 4 -8 3 -4 -4 3 -6 2 -14 -4 -17
-8 -5 -8 -11 0 -20 9 -11 8 -13 -8 -10 -15 3 -18 -2 -15 -23 3 -24 2 -24 -6
-7 -9 18 -10 17 -11 -10 -1 -26 -3 -27 -10 -10 -7 17 -9 16 -10 -10 -1 -26 -3
-27 -10 -10 -8 18 -9 17 -9 -7 -1 -29 -16 -45 -26 -28 -8 13 -25 3 -25 -13 0
-7 4 -6 10 3 5 8 10 10 10 4 0 -19 -13 -24 -29 -12 -9 7 -13 9 -9 4 4 -5 3
-17 -3 -28 -9 -16 -13 -17 -27 -6 -12 10 -14 10 -8 1 4 -8 2 -13 -4 -13 -6 0
-8 -5 -4 -12 5 -8 0 -7 -11 2 -11 9 -16 10 -11 3 4 -8 2 -13 -4 -13 -6 0 -8
-5 -4 -12 6 -10 4 -10 -8 0 -13 10 -18 8 -33 -14 -12 -19 -20 -23 -28 -15 -9
9 -16 6 -30 -11 -10 -13 -16 -16 -12 -8 4 8 -1 6 -9 -4 -11 -14 -16 -16 -16
-6 0 9 -6 6 -16 -8 -12 -17 -19 -20 -29 -12 -10 8 -15 8 -21 -1 -5 -8 -3 -9 6
-4 8 5 11 4 6 -3 -4 -6 -13 -9 -21 -5 -9 3 -15 -1 -15 -8 0 -12 -2 -12 -9 -1
-7 11 -9 11 -14 -2 -4 -9 -13 -13 -22 -10 -9 4 -15 1 -15 -7 0 -11 -3 -11 -10
1 -7 11 -10 11 -10 2 0 -7 -4 -11 -8 -8 -5 3 -21 -1 -36 -9 -15 -8 -24 -9 -20
-3 4 7 3 8 -4 4 -7 -4 -22 -9 -34 -12 -13 -2 -34 -7 -48 -10 -14 -3 -36 -7
-50 -9 -14 -2 -26 -4 -27 -5 -2 -1 -7 -3 -12 -4 -5 0 -13 -4 -17 -8 -4 -4 -13
-3 -21 3 -8 7 -13 8 -13 1 0 -5 -7 -13 -16 -16 -8 -3 -13 -2 -10 2 2 4 -4 8
-15 8 -10 0 -19 -3 -19 -7 0 -4 -9 -5 -21 -2 -12 4 -25 0 -30 -8 -7 -12 -9
-12 -9 1 0 13 -1 13 -10 0 -9 -13 -10 -13 -10 0 0 13 -1 13 -10 0 -5 -8 -10
-10 -10 -5 0 6 -17 9 -40 7 -27 -3 -38 -8 -33 -16 4 -6 0 -6 -9 2 -9 7 -19 9
-21 4 -7 -10 -87 -9 -104 1 -8 5 -13 3 -13 -5 0 -9 -3 -10 -8 -2 -4 7 -30 11
-60 10 -29 0 -52 3 -52 9 0 6 -5 3 -10 -5 -9 -13 -10 -13 -10 0 0 13 -1 13
-10 0 -8 -12 -10 -12 -10 -1 0 8 -3 12 -6 9 -3 -4 -19 -2 -35 2 -22 7 -28 6
-22 -3 5 -9 3 -9 -8 0 -23 18 -25 19 -43 4 -14 -12 -16 -12 -11 1 5 11 -1 14
-22 13 -15 -1 -36 2 -47 8 -11 5 -16 5 -13 0 4 -5 0 -10 -8 -10 -8 0 -12 4 -9
9 5 7 -30 12 -39 6 -2 -2 -12 4 -22 12 -17 13 -18 13 -10 0 7 -12 6 -13 -6 -4
-19 15 -51 26 -45 16 3 -5 -1 -9 -9 -9 -8 0 -12 4 -9 9 3 4 -3 8 -12 8 -15 0
-14 4 7 28 l24 27 -25 -22 c-38 -33 -72 -34 -81 -3 -7 24 -7 24 -8 2 l-1 -23
-22 20 c-15 15 -25 18 -34 10 -9 -7 -17 -4 -28 13 -11 15 -16 17 -16 8 0 -13
-1 -13 -10 0 -5 8 -12 11 -16 7 -4 -4 -16 0 -26 10 -10 9 -18 12 -18 8 0 -5
-14 4 -32 21 -17 16 -28 22 -24 14 5 -9 2 -8 -7 3 -16 19 -32 24 -21 5 5 -7 3
-8 -5 -4 -7 5 -10 15 -6 23 4 13 3 13 -8 4 -11 -9 -17 -7 -28 6 -13 17 -13 17
6 3 19 -14 19 -14 6 3 -10 13 -17 15 -27 6 -10 -8 -12 -6 -9 10 3 15 0 18 -12
14 -11 -4 -14 -2 -9 5 4 7 1 12 -9 12 -10 0 -13 -5 -9 -12 6 -9 3 -9 -9 0 -9
8 -15 17 -14 20 1 4 -1 7 -5 7 -14 0 -78 70 -77 84 0 12 3 10 9 -4 6 -15 9
-16 9 -4 1 23 -10 30 -27 16 -13 -10 -14 -9 -4 10 13 23 -1 43 -14 22 -5 -8
-3 -9 6 -4 9 5 11 4 6 -4 -13 -21 -27 -1 -14 22 10 19 9 21 -4 9 -13 -10 -18
-10 -24 -1 -4 7 -3 9 4 5 7 -4 10 5 10 24 -1 20 -4 26 -9 19 -4 -7 -5 -17 -3
-21 9 -15 -3 -8 -17 9 -10 11 -10 14 -1 9 7 -4 12 -2 13 6 0 7 2 21 4 31 2 9
-1 15 -6 11 -5 -3 -7 -9 -4 -14 3 -5 0 -12 -6 -16 -7 -4 -9 -3 -5 4 3 6 2 13
-4 17 -5 3 -10 12 -10 18 0 7 4 6 11 -3 7 -11 8 -6 3 20 -3 19 -10 40 -15 45
-4 6 -4 17 1 24 4 8 6 21 3 30 -4 12 -3 13 5 3 5 -8 8 -24 6 -38 -1 -13 2 -26
6 -29 5 -3 7 4 5 16 -3 13 1 29 8 38 8 9 8 12 1 8 -7 -4 -14 2 -17 13 -3 11 0
23 5 27 6 3 8 1 4 -5 -3 -6 -2 -13 3 -16 5 -4 8 2 6 11 -1 10 3 24 9 32 9 12
8 12 -11 2 -13 -6 -23 -9 -23 -6 0 7 106 59 206 101 255 106 542 176 834 204
128 12 461 4 586 -14z m1104 -952 c39 -45 50 -73 50 -129 0 -55 -19 -75 -63
-69 -17 3 -37 1 -43 -3 -7 -4 -49 -71 -94 -148 -45 -77 -88 -147 -96 -156 -22
-24 -68 -30 -142 -19 l-65 11 -54 -53 c-57 -56 -148 -185 -197 -279 l-29 -56
-106 -16 -106 -16 -90 48 c-49 27 -178 94 -285 149 l-195 100 -47 -24 c-65
-33 -173 -57 -224 -49 -53 8 -79 35 -129 138 -34 70 -44 82 -65 82 -22 0 -27
-7 -37 -48 -14 -57 -28 -77 -55 -77 -28 0 -85 32 -153 85 -73 58 -169 105
-213 105 -18 0 -47 -7 -63 -16 -40 -20 -76 -11 -132 32 -33 26 -53 35 -74 32
-25 -3 -28 -7 -31 -45 -3 -37 -6 -43 -26 -43 -33 0 -111 54 -145 100 -38 52
-48 116 -32 195 7 33 15 64 18 68 8 13 53 -34 46 -47 -3 -6 -3 -8 2 -4 9 9 37
-11 30 -21 -2 -4 1 -8 8 -8 22 0 67 -35 60 -46 -4 -6 0 -8 10 -4 9 3 17 2 19
-2 7 -18 353 -129 423 -136 17 -2 91 -12 165 -23 124 -19 180 -25 360 -37 112
-8 547 -8 559 0 7 4 76 7 154 8 107 0 126 2 77 7 -38 4 -50 7 -30 8 19 1 91
11 159 22 69 11 131 18 138 15 8 -2 12 -1 9 4 -3 5 22 14 57 21 151 29 424
125 500 176 21 14 56 53 77 87 22 34 43 67 48 72 4 6 6 18 4 28 -6 27 13 20
48 -19z m36 -415 c17 -16 24 -33 24 -59 0 -40 -20 -64 -103 -119 -27 -18 -50
-38 -53 -44 -2 -7 9 -50 25 -97 l29 -85 -156 -17 c-226 -25 -324 -29 -316 -15
3 7 0 5 -8 -4 -8 -9 -36 -18 -68 -21 l-55 -6 45 14 c25 8 54 18 65 24 11 5 52
23 91 38 145 58 302 189 346 289 12 27 21 70 22 99 l0 52 44 -14 c25 -7 55
-23 68 -35z m-2937 -147 c11 -21 39 -56 63 -78 82 -76 327 -201 495 -254 40
-12 71 -26 68 -30 -2 -3 10 -7 28 -7 53 0 196 -26 191 -35 -3 -4 2 -5 10 -2
10 4 16 1 16 -7 0 -11 2 -12 9 -1 6 11 29 11 112 3 96 -9 384 -22 489 -22 l45
0 -40 -10 c-22 -6 -50 -8 -62 -6 -12 2 -20 0 -17 -4 3 -5 3 -9 1 -9 -2 0 -116
-22 -253 -49 -239 -48 -375 -78 -551 -122 l-81 -21 -109 56 c-113 58 -219 137
-274 205 -30 39 -35 41 -85 41 -62 0 -63 2 -67 112 l-2 76 -53 22 c-68 28 -80
50 -53 94 16 25 85 86 98 86 2 0 11 -17 22 -38z"/>
</g>
</svg>
